<svg
   xmlns="http://www.w3.org/2000/svg"
   viewBox="0 0 4.25 4.25"
   height="16"
   width="16">
  <g
     transform="translate(0,-292.76664)">
    <g
       transform="translate(-2.7025298,-14.259153)">
      <polygon
         transform="matrix(0.26458333,0,0,0.26458333,2.8348215,301.20496)"
         style="fill:#2d2d30"
         points="13,32.691 13,27.309 7.791,24 7.209,24 2,27.309 2,32.691 7.209,36 7.791,36 "/>
      <polygon
         transform="matrix(0.26458333,0,0,0.26458333,2.8348215,301.20496)"
         style="fill:#b180d7"
         points="7.5,25 3,27.857 3,32.143 7.5,35 12,32.143 12,27.857 "/>
      <polygon
         transform="matrix(0.26458333,0,0,0.26458333,2.8348215,301.20496)"
         style="fill:#b180d7"
         points="7,33.498 4,31.593 4,28.777 7,30.684 "/>
      <polygon
         transform="matrix(0.26458333,0,0,0.26458333,2.8348215,301.20496)"
         style="fill:#b180d7"
         points="4.642,28 7.5,26.186 10.358,28 7.5,29.814 "/>
      <polygon
         transform="matrix(0.26458333,0,0,0.26458333,2.8348215,301.20496)"
         style="fill:#b180d7"
         points="11,31.593 8,33.498 8,30.684 11,28.777 "
         />
      <polygon
         transform="matrix(0.26458333,0,0,0.26458333,2.8348215,301.20496)"
         style="fill:#2b282e"
         points="10.358,28 7.5,29.814 4.642,28 7.5,26.186 "/>
      <polygon
         transform="matrix(0.26458333,0,0,0.26458333,2.8348215,301.20496)"
         style="fill:#2b282e"
         points="4,28.777 7,30.684 7,33.498 4,31.593 "/>
      <polygon
         transform="matrix(0.26458333,0,0,0.26458333,2.8348215,301.20496)"
         style="fill:#2b282e"
         points="8,33.498 8,30.684 11,28.777 11,31.593 "/>
    </g>
  </g>
</svg>
