<svg xmlns="http://www.w3.org/2000/svg" height="20" width="20">
  <g transform="translate(-23.050847,-5.932203)">
    <path style="fill:#2d2d30" d="m 36.551347,20.432203 c -1.914,0 -3.601,-1.242 -4.227,-3 l -1.683,0 c -0.524,0.91 -1.503,1.5 -2.591,1.5 -1.654,0 -3,-1.346 -3,-3 0,-1.654 1.346,-3 3,-3 1.088,0 2.066,0.588 2.591,1.5 l 1.683,0 c 0.626,-1.76 2.313,-3 4.227,-3 2.481,0 4.5,2.018 4.5,4.5 0,2.48 -2.019,4.5 -4.5,4.5 z"/>
    <path style="fill:#75beff" d="m 36.551347,12.432203 c -1.759,0 -3.204,1.309 -3.449,3 l -3.122,0 c -0.223,-0.861 -0.998,-1.5 -1.929,-1.5 -1.104,0 -2,0.895 -2,2 0,1.104 0.896,2 2,2 0.931,0 1.706,-0.639 1.929,-1.5 l 3.122,0 c 0.245,1.691 1.69,3 3.449,3 1.93,0 3.5,-1.57 3.5,-3.5 0,-1.932 -1.57,-3.5 -3.5,-3.5 z"/>
    <circle style="fill:#75beff" cx="36.55135" cy="15.932203" r="1.5"/>
    <circle style="fill:#2b282e" cx="36.55135" cy="15.932203" r="1.5"/>
  </g>
</svg>
