<svg xmlns="http://www.w3.org/2000/svg" width="20" height="20">
  <g
     transform="translate(-2.881356,0.33898305)">
    <path
       style="fill:#424242"
       d="m 18.244578,6.5200169 -2.641,2.641 -2,-2 2.641,-2.641 c -0.502,-0.226 -1.055,-0.359 -1.641,-0.359 -2.209,0 -4,1.791 -4,4 0,0.586 0.133,1.139 0.359,1.64 L 7.6035784,13.161017 c 0,0 -1,1 0,2 l 1.9999999,0 3.3589997,-3.36 c 0.502,0.227 1.055,0.36 1.641,0.36 2.209,0 4,-1.791 4,-4.0000001 0,-0.586 -0.133,-1.139 -0.359,-1.641 z"/>
  </g>
</svg>
